Coordinates
version=1
nRows=38
nColumns=12
inDegrees=yes

Units are S.I. units (second, meters, Newtons, ...)
Angles are in degrees

endheader
time	SC_y	SC_z	SC_x	AC_y	AC_z	AC_x	GH_y	GH_z	GH_yy	EL_x	PS_y
       0.0              -28.15         0.7361          37.78          35.84         -17.04        -0.8396          160.8          85.41          176.8          128.9          109.7
   0.03669              -28.14         0.7358          37.77          35.85         -17.04        -0.8414          160.8           85.4          176.8          128.9          109.7
   0.07339              -28.14         0.7356          37.77          35.85         -17.04        -0.8434          160.7          85.38          176.7          128.9          109.7
    0.1101              -28.14         0.7353          37.76          35.86         -17.04        -0.8455          160.7          85.37          176.7          128.9          109.7
    0.1468              -28.14         0.7349          37.76          35.86         -17.03        -0.8478          160.7          85.35          176.7          128.9          109.7
    0.1835              -28.13         0.7346          37.75          35.87         -17.03        -0.8502          160.6          85.33          176.6          128.9          109.7
    0.2202              -28.13         0.7342          37.75          35.87         -17.03        -0.8527          160.6          85.31          176.6          128.9          109.7
    0.2569              -28.13         0.7338          37.74          35.88         -17.03        -0.8555          160.5          85.29          176.6          128.9          109.7
    0.2936              -28.13         0.7334          37.73          35.89         -17.02        -0.8584          160.5          85.27          176.5          128.9          109.7
    0.3303              -28.12          0.733          37.73          35.89         -17.02        -0.8616          160.4          85.24          176.5          128.9          109.7
    0.3669              -28.12         0.7325          37.72           35.9         -17.02        -0.8649          160.4          85.21          176.4          128.9          109.7
    0.4036              -28.11          0.732          37.71          35.91         -17.01        -0.8686          160.3          85.19          176.4          128.9          109.7
    0.4403              -28.11         0.7314           37.7          35.92         -17.01        -0.8725          160.2          85.15          176.4          128.9          109.7
     0.477               -28.1         0.7308          37.69          35.93         -17.01        -0.8767          160.1          85.12          176.3          128.9          109.7
    0.5137               -28.1         0.7302          37.68          35.94          -17.0        -0.8813          160.1          85.09          176.2          128.9          109.7
    0.5504              -28.09         0.7295          37.67          35.95          -17.0        -0.8863          160.0          85.05          176.2          128.9          109.7
    0.5871              -28.09         0.7287          37.66          35.96         -16.99        -0.8917          159.9           85.0          176.1          128.9          109.7
    0.6238              -28.08         0.7279          37.64          35.98         -16.98        -0.8975          159.8          84.96          176.0          128.9          109.7
    0.6605              -28.07          0.727          37.63          35.99         -16.98         -0.904          159.7          84.91          175.9          128.9          109.7
    0.6972              -28.06          0.726          37.61          36.01         -16.97         -0.911          159.5          84.85          175.9          128.9          109.7
    0.7339              -28.06         0.7249           37.6          36.02         -16.96        -0.9187          159.4          84.79          175.8          128.9          109.7
    0.7706              -28.05         0.7237          37.58          36.04         -16.96        -0.9272          159.2          84.73          175.6          128.9          109.7
    0.8073              -28.03         0.7223          37.56          36.07         -16.95        -0.9366          159.1          84.65          175.5          128.9          109.8
     0.844              -28.02         0.7208          37.53          36.09         -16.94         -0.947          158.9          84.57          175.4          128.9          109.8
    0.8807              -28.01         0.7192          37.51          36.12         -16.92        -0.9586          158.7          84.48          175.2          128.9          109.8
    0.9174              -27.99         0.7174          37.48          36.15         -16.91        -0.9715          158.4          84.38          175.1          128.9          109.8
    0.9541              -27.98         0.7153          37.44          36.18          -16.9        -0.9859          158.2          84.27          174.9          128.9          109.8
    0.9908              -27.96          0.713          37.41          36.22         -16.88         -1.002          157.9          84.14          174.7          128.9          109.8
     1.027              -27.94         0.7104          37.37          36.26         -16.86         -1.021          157.6          83.99          174.4          128.9          109.8
     1.064              -27.91         0.7074          37.32          36.31         -16.84         -1.041          157.2          83.83          174.2          128.9          109.8
     1.101              -27.89         0.7041          37.27          36.36         -16.82         -1.065          156.7          83.64          173.9          128.9          109.8
     1.138              -27.85         0.7002           37.2          36.42         -16.79         -1.093          156.3          83.43          173.5          128.9          109.8
     1.174              -27.82         0.6957          37.13          36.49         -16.76         -1.124          155.7          83.18          173.1          128.9          109.9
     1.211              -27.78         0.6905          37.05          36.58         -16.72         -1.161          155.0          82.89          172.6          128.9          109.9
     1.248              -27.73         0.6844          36.95          36.68         -16.68         -1.204          154.3          82.56          172.1          128.9          109.9
     1.284              -27.67         0.6772          36.84          36.79         -16.63         -1.254          153.3          82.16          171.4          128.9          109.9
     1.321               -27.6         0.6687           36.7          36.93         -16.57         -1.314          152.3          81.69          170.6          128.9          110.0
     1.358              -27.52         0.6585          36.54           37.1          -16.5         -1.386          151.0          81.12          169.7          128.9          110.0
